<?xml version="1.0" encoding="utf-8"?>
<!-- Generator: Adobe Illustrator 15.0.0, SVG Export Plug-In . SVG Version: 6.00 Build 0)  -->
<!DOCTYPE svg PUBLIC "-//W3C//DTD SVG 1.1//EN" "http://www.w3.org/Graphics/SVG/1.1/DTD/svg11.dtd">
<svg version="1.1" id="Layer_1" xmlns:sketch="http://www.bohemiancoding.com/sketch/ns"
	 xmlns="http://www.w3.org/2000/svg" xmlns:xlink="http://www.w3.org/1999/xlink" x="0px" y="0px" width="48px" height="48px"
	 viewBox="-15 -15 48 48" enable-background="new -15 -15 48 48" xml:space="preserve">
<title>Shape</title>
<desc>Created with Sketch.</desc>
<g id="NEW" sketch:type="MSPage">
	<g id="desktop-empty" transform="translate(-423.000000, -23.000000)" sketch:type="MSArtboardGroup">
		<g id="App-bar" sketch:type="MSLayerGroup">
			<g id="Search-box" transform="translate(400.000000, 8.000000)" sketch:type="MSShapeGroup">
				<g id="Read-later-icon" transform="translate(8.000000, 0.000000)">
					<path id="Shape" fill="#616161" d="M27.5,26h-0.8l-0.3-0.3c1-1.101,1.6-2.6,1.6-4.2c0-3.6-2.9-6.5-6.5-6.5
						c-3.6,0-6.5,2.9-6.5,6.5c0,3.6,2.9,6.5,6.5,6.5c1.6,0,3.1-0.6,4.2-1.6l0.3,0.3v0.8l5,5l1.5-1.5L27.5,26L27.5,26z M21.5,26
						C19,26,17,24,17,21.5s2-4.5,4.5-4.5s4.5,2,4.5,4.5S24,26,21.5,26L21.5,26z"/>
				</g>
			</g>
		</g>
	</g>
</g>
</svg>
