<?xml version="1.0" encoding="utf-8"?>
<!-- Generator: Adobe Illustrator 15.0.0, SVG Export Plug-In  -->
<!DOCTYPE svg PUBLIC "-//W3C//DTD SVG 1.1//EN" "http://www.w3.org/Graphics/SVG/1.1/DTD/svg11.dtd" [
	<!ENTITY ns_flows "http://ns.adobe.com/Flows/1.0/">
]>
<svg version="1.1"
	 xmlns="http://www.w3.org/2000/svg" xmlns:xlink="http://www.w3.org/1999/xlink" xmlns:a="http://ns.adobe.com/AdobeSVGViewerExtensions/3.0/"
	 x="0px" y="0px" width="120px" height="120px" viewBox="-33.363 -33.363 120 120" enable-background="new -33.363 -33.363 120 120"
	 xml:space="preserve">
<defs>
</defs>
<polygon fill-rule="evenodd" clip-rule="evenodd" fill="#616161" stroke="#616161" stroke-width="1.5" stroke-linecap="round" stroke-linejoin="round" stroke-miterlimit="10" points="
	37.449,34.449 34.449,34.449 52.449,52.449 52.449,49.449 "/>
<polygon fill-rule="evenodd" clip-rule="evenodd" fill="#616161" stroke="#616161" stroke-width="1.5" stroke-linecap="round" stroke-linejoin="round" stroke-miterlimit="10" points="
	34.449,34.449 34.449,37.449 49.449,52.449 52.449,52.449 "/>
<path fill-rule="evenodd" clip-rule="evenodd" fill="#616161" stroke="#616161" stroke-miterlimit="10" d="M0.5,20
	c0,10.77,8.73,19.5,19.5,19.5S39.5,30.77,39.5,20S30.77,0.5,20,0.5S0.5,9.23,0.5,20z M5,20c0-8.279,6.721-15,15-15s15,6.721,15,15
	s-6.721,15-15,15S5,28.279,5,20z"/>
</svg>
